<?xml version="1.0" standalone="no"?>
<!DOCTYPE svg PUBLIC "-//W3C//DTD SVG 20010904//EN"
 "http://www.w3.org/TR/2001/REC-SVG-20010904/DTD/svg10.dtd">
<svg version="1.0" xmlns="http://www.w3.org/2000/svg"
 width="202.000000pt" height="202.000000pt" viewBox="0 0 202.000000 202.000000"
 preserveAspectRatio="xMidYMid meet">
<metadata>
Created by potrace 1.11, written by Peter Selinger 2001-2013
</metadata>
<g transform="translate(0.000000,202.000000) scale(0.100000,-0.100000)"
fill="#000000" stroke="none">
<path d="M885 1879 c-122 -11 -158 -18 -239 -45 -378 -126 -614 -457 -614
-860 0 -406 239 -743 613 -863 118 -38 198 -49 325 -46 135 3 176 10 284 47
139 47 242 111 340 213 115 119 207 302 230 456 l7 45 -243 0 -242 -1 -18 -48
c-35 -95 -104 -176 -190 -222 -62 -34 -77 -38 -174 -41 -199 -7 -353 106 -414
302 -23 76 -25 224 -3 298 61 209 236 335 441 319 52 -4 139 -30 147 -43 5 -8
-183 -386 -208 -418 -28 -36 22 -12 225 108 123 73 300 178 393 233 94 56 174
104 179 108 12 10 -32 83 -95 158 -137 164 -365 281 -579 297 -41 3 -79 6 -85
8 -5 1 -41 -1 -80 -5z"/>
</g>
</svg>
